<svg version="1" xmlns="http://www.w3.org/2000/svg" width="264" height="264" viewBox="0 0 198.000000 198.000000"><path d="M70.8 9.9c-7.9 2.6-14.8 10-17.4 18.9-1.1 3.6-1.4 16.6-1.4 63.4 0 35.8.4 59.6 1 60.7 1.6 3.1 6.5 4.6 10 3.1 1.7-.7 3.5-2.1 4-3.1.6-1.1 1-24.2 1-58.6.1-59.6.2-61.6 4.6-66.4 3.6-4 9.3-2 11.8 4.1 1.3 3.4 1.6 8.7 1.6 33.5v29.4l2.4 2.8c2.3 2.7 2.4 2.7 13.3 2.5 29.9-.8 44.7 10.6 44.7 34.3 0 14.7-5.2 23.9-16.2 28.8-7.8 3.5-19.5 5.1-29 3.9-8.6-1-13.1.5-14.6 5-1.1 3.3.6 7.8 3.7 9.8 3.4 2.2 25.3 2.6 34.5.6 24.7-5.2 38.2-22.2 38.2-48.1 0-30.6-17.8-48-52.2-51.1l-7.6-.7-.4-25.6-.3-25.6-2.8-6c-3.3-7-6.7-10.9-12.1-13.7-4.4-2.2-12.8-3.2-16.8-1.9z"/></svg>